<svg id="Layer_1" data-name="Layer 1" xmlns="http://www.w3.org/2000/svg" viewBox="0 0 18.93 18.47"><defs><style>.cls-1{fill:#17515e;fill-rule:evenodd;}</style></defs><path class="cls-1" d="M9.47,0a9.47,9.47,0,0,0-3,18.45c.48.08.65-.2.65-.45s0-1,0-1.76c-2.38.43-3-.58-3.18-1.12a3.46,3.46,0,0,0-1-1.33c-.33-.18-.81-.62,0-.63a1.89,1.89,0,0,1,1.45,1,2,2,0,0,0,2.76.78,2,2,0,0,1,.6-1.27c-2.1-.23-4.3-1.05-4.3-4.67a3.64,3.64,0,0,1,1-2.54,3.37,3.37,0,0,1,.09-2.51s.79-.25,2.6,1a8.58,8.58,0,0,1,2.37-.32,8.58,8.58,0,0,1,2.37.32c1.81-1.23,2.6-1,2.6-1a3.37,3.37,0,0,1,.09,2.51,3.63,3.63,0,0,1,1,2.54c0,3.63-2.22,4.44-4.32,4.67a2.27,2.27,0,0,1,.63,1.75c0,1.27,0,2.29,0,2.61s.18.54.65.45A9.47,9.47,0,0,0,9.47,0Z"/></svg>