<svg id="Layer_1" data-name="Layer 1" xmlns="http://www.w3.org/2000/svg" viewBox="0 0 20.85 18.26"><defs><style>.cls-1{fill:#fff;}.cls-2{fill:#15525e;}.cls-3{fill:#a3aeb6;}.cls-4{fill:#728691;}</style></defs><path class="cls-1" d="M.34,18.24c-.11,0-.26,0-.31,0s0-.2,0-.31V2.6c.07,0,.08.06.09.1A2.35,2.35,0,0,0,2.05,4.34a2.5,2.5,0,0,0,2-.43,2,2,0,0,0,.91-1.74A1.9,1.9,0,0,0,4.19.68,2.67,2.67,0,0,0,1,.54,2.29,2.29,0,0,0,.12,1.71c0,.06,0,.14-.1.14C0,1.28,0,.71,0,.15,0,0,0,0,.16,0H20.69c.12,0,.15,0,.15.15v18s0,.11,0,.14a.51.51,0,0,1-.05-.32V11.14c0-.29-.06-.57,0-.85a.29.29,0,0,0,0-.24,2.63,2.63,0,0,1-.06-.39,4.77,4.77,0,0,0-.69-2A3.53,3.53,0,0,0,18.08,6.2,6.53,6.53,0,0,0,16,5.85a6.2,6.2,0,0,0-2.05.24,4.36,4.36,0,0,0-2,1.27c-.08.09-.15.21-.23.31s-.1.1-.16.08-.06-.1-.07-.16V6.37c0-.22,0-.23-.23-.23H7.71c-.29,0-.29,0-.29.28V17.91c0,.11,0,.23,0,.33H4.67c-.08-.09-.06-.2-.06-.31V6.45c0-.31,0-.31-.31-.31H.71c-.32,0-.32,0-.32.31V17.9C.39,18,.42,18.14.34,18.24Z"/><path class="cls-2" d="M7.37,18.24V6.3c0-.17,0-.22.22-.22H11.3c.17,0,.2,0,.2.21,0,.42,0,.85,0,1.27a.37.37,0,0,0,0,.18.46.46,0,0,0,.16-.15A3.52,3.52,0,0,1,13.05,6.4a6.48,6.48,0,0,1,4.87-.3,3.32,3.32,0,0,1,1.63,1,3.89,3.89,0,0,1,.56.77,5.46,5.46,0,0,1,.59,2.19c.05,0,0,.13.06.19.09,2.38,0,4.76,0,7.14,0,.28,0,.57,0,.85H16.5a.51.51,0,0,1-.05-.32V12c0-.26-.05-.52,0-.78a.27.27,0,0,0,0-.23.76.76,0,0,1-.06-.26,1.77,1.77,0,0,0-1.63-1.53,3.27,3.27,0,0,0-1.61.17A1.85,1.85,0,0,0,12,10.43a3.13,3.13,0,0,0-.24,1.12c-.08,2.13,0,4.26,0,6.38,0,.11,0,.22-.05.31Z"/><path class="cls-2" d="M.34,18.24c0-.07,0-.14,0-.21V6.32c0-.23,0-.23.23-.23H4.42c.24,0,.24,0,.24.24V18c0,.07,0,.14,0,.21Z"/><path class="cls-1" d="M11.67,18.24V12.32A6.67,6.67,0,0,1,11.78,11a2.08,2.08,0,0,1,1.93-1.84,3,3,0,0,1,1.57.15,1.6,1.6,0,0,1,.77.64A2.34,2.34,0,0,1,16.4,11c.05,0,0,.13.07.18.07,1.67,0,3.34,0,5,0,.69,0,1.37,0,2.06Z"/><path class="cls-2" d="M0,1.85a3.07,3.07,0,0,0,.17-.42A2.38,2.38,0,0,1,2.05.08,2.58,2.58,0,0,1,4.22.64a2,2,0,0,1,.57,2.48,2.36,2.36,0,0,1-2,1.29A2.66,2.66,0,0,1,.69,3.74a1.61,1.61,0,0,1-.39-.5C.2,3,.11,2.81,0,2.6Z"/><path class="cls-3" d="M20.76,10.25c-.09,0-.05-.12-.06-.19S20.77,10.18,20.76,10.25Z"/><path class="cls-4" d="M16.47,11.17c-.1,0-.07-.12-.07-.18S16.47,11.1,16.47,11.17Z"/></svg>