<svg id="Layer_1" data-name="Layer 1" xmlns="http://www.w3.org/2000/svg" xmlns:xlink="http://www.w3.org/1999/xlink" viewBox="0 0 24.48 18.47"><defs><style>.cls-1{fill:none;}.cls-2{clip-path:url(#clip-path);}.cls-3{fill:#fff;}.cls-4{fill:#15525e;}</style><clipPath id="clip-path"><rect class="cls-1" y="-3.05" width="24.48" height="24.48"/></clipPath></defs><g class="cls-2"><path class="cls-3" d="M24.53,15.47c0,1.88,0,3.76,0,5.64,0,.35-.07.42-.43.42H-.06V-3.06q12.06,0,24.11,0c.41,0,.49.08.49.49,0,2.65,0,5.3,0,8a1.47,1.47,0,0,1-.56.52c-3.5,2.13-7,4.24-10.49,6.4a2.07,2.07,0,0,1-2.42,0C7.69,10.19,4.31,8.14.93,6.08.73,6,.56,5.78.3,5.79a.9.9,0,0,0-.08.58v8.07a3.48,3.48,0,0,0,3.72,3.71H20.62a3.56,3.56,0,0,0,3.55-2.29C24.24,15.7,24.25,15.46,24.53,15.47Z"/><path class="cls-4" d="M24.53,15.47c-.18.1-.16.31-.22.46A3.55,3.55,0,0,1,21,18.3q-8.73,0-17.45,0A3.53,3.53,0,0,1,.07,14.92c0-3.11,0-6.21,0-9.32a1.88,1.88,0,0,1,.05-.2l1.23.74c3.29,2,6.59,4,9.86,6a1.8,1.8,0,0,0,2.14,0c3.71-2.29,7.46-4.54,11.19-6.81Z"/><path class="cls-4" d="M12.32.28c2.85,0,5.7,0,8.55,0a3.6,3.6,0,0,1,3.42,2.38c.11.31.1.49-.21.67q-5.73,3.48-11.44,7a.56.56,0,0,1-.69,0Q6.27,6.82.56,3.37a.52.52,0,0,1-.25-.76A3.61,3.61,0,0,1,3.71.28C6.58.27,9.45.28,12.32.28Z"/></g></svg>