<svg xmlns="http://www.w3.org/2000/svg" width="328.222" height="316.71" viewBox="0 0 328.222 316.71">
  <g id="Group_25" data-name="Group 25" transform="translate(-951.949 -4150.203)">
    <g id="Rectangle_15" data-name="Rectangle 15" transform="translate(952.006 4287.059)" fill="#15515e" stroke="#15515e" stroke-width="1">
      <rect width="328.103" height="179.782" rx="1" stroke="none"/>
      <rect x="0.5" y="0.5" width="327.103" height="178.782" rx="0.5" fill="none"/>
    </g>
    <g id="Path_7" data-name="Path 7" transform="translate(952.057 4148.937)" fill="#15515e">
      <path d="M 320.7740173339844 139.8695678710938 C 319.5922546386719 139.8695678710938 318.4454040527344 139.8445739746094 317.5238037109375 139.8244476318359 C 316.8882141113281 139.8105621337891 316.3392944335938 139.7985687255859 315.9488220214844 139.7985687255859 L 12.1667652130127 139.7985687255859 C 12.03439044952393 139.7985687255859 11.86197376251221 139.7995300292969 11.65572357177734 139.8006591796875 C 11.35101509094238 139.8023223876953 10.971848487854 139.8043975830078 10.53851509094238 139.8043975830078 C 8.006098747253418 139.8043975830078 5.980598926544189 139.7296600341797 4.346265316009521 139.5758972167969 C 0.9944038391113281 139.2605133056641 0.5136540532112122 138.7079467773438 0.4492830634117126 138.5924682617188 C 0.4424553513526917 138.5285491943359 0.4485735297203064 137.896484375 2.812932014465332 135.6811981201172 C 4.303390502929688 134.2847290039062 6.143140316009521 132.7961883544922 7.486432075500488 131.7092742919922 C 8.034732818603516 131.2656555175781 8.508480072021484 130.8823699951172 8.81434154510498 130.6205749511719 L 161.4558563232422 2.729402780532837 L 161.4578857421875 2.727694511413574 L 161.4598846435547 2.725944519042969 C 162.18310546875 2.106777667999268 163.1057281494141 1.765777707099915 164.0578002929688 1.765777707099915 C 165.0098876953125 1.765777707099915 165.9325103759766 2.106777667999268 166.6557312011719 2.725944519042969 L 166.6581420898438 2.728069305419922 L 166.66064453125 2.730111122131348 L 321.7168579101562 132.0527801513672 C 322.3363647460938 132.5835113525391 323.8661499023438 133.9740295410156 325.2289733886719 135.4452819824219 C 327.5218811035156 137.9205627441406 327.6325988769531 138.7730712890625 327.6118774414062 138.9754028320312 L 327.6115112304688 138.9791870117188 L 327.6111755371094 138.9830322265625 C 327.61083984375 138.9867706298828 327.4640197753906 139.3715667724609 325.6235961914062 139.6280670166016 C 324.4576721191406 139.7905731201172 322.8713989257812 139.8695678710938 320.7740173339844 139.8695678710938 Z" stroke="none"/>
      <path d="M 164.0578002929688 2.265777587890625 C 163.2248840332031 2.265777587890625 162.4177703857422 2.564117431640625 161.7850952148438 3.10577392578125 L 161.7769317626953 3.112655639648438 L 9.139739990234375 131.0001983642578 C 8.828765869140625 131.2663726806641 8.375152587890625 131.6333923339844 7.8011474609375 132.0978240966797 C 6.5565185546875 133.1048126220703 4.8519287109375 134.4839782714844 3.423797607421875 135.7964477539062 C 1.77227783203125 137.314208984375 1.220458984375 138.0813293457031 1.036651611328125 138.4144744873047 C 1.382049560546875 138.5835113525391 2.317840576171875 138.9014129638672 4.68365478515625 139.1041564941406 C 6.255859375 139.2389068603516 8.17095947265625 139.3043975830078 10.53854370117188 139.3043975830078 C 10.97085571289062 139.3043975830078 11.34902954101562 139.3023223876953 11.65298461914062 139.3006591796875 C 11.8603515625 139.2995300292969 12.03369140625 139.2985687255859 12.16677856445312 139.2985687255859 L 315.9487915039062 139.2985687255859 C 316.3448486328125 139.2985687255859 316.8963623046875 139.3106079101562 317.5349731445312 139.3245239257812 C 318.4540710449219 139.3446044921875 319.5978393554688 139.3695678710938 320.7740173339844 139.3695678710938 C 322.5413208007812 139.3695678710938 323.9288940429688 139.3135681152344 325.0160522460938 139.1984100341797 C 326.2781982421875 139.0646820068359 326.8404235839844 138.8767395019531 327.0722351074219 138.7689971923828 C 326.9546813964844 138.4310150146484 326.5038757324219 137.5436859130859 324.7755126953125 135.6918640136719 C 323.4493103027344 134.2709350585938 321.9866638183594 132.9425964355469 321.3965454101562 132.4367828369141 L 166.3305206298828 3.10577392578125 C 165.6978454589844 2.564117431640625 164.8907165527344 2.265777587890625 164.0578002929688 2.265777587890625 M 164.0578002929688 1.265777587890625 C 165.0987243652344 1.265777587890625 166.1396331787109 1.625900268554688 166.9808959960938 2.346145629882812 L 322.0370483398438 131.6688232421875 C 323.2578125 132.7139434814453 328.2821350097656 137.335693359375 328.1093139648438 139.0262298583984 C 327.9535522460938 140.8220672607422 318.5158386230469 140.2985687255859 315.9487915039062 140.2985687255859 L 12.16677856445312 140.2985687255859 C 10.342529296875 140.2985687255859 0.886566162109375 140.4798583984375 0.006256103515625 138.8243255615234 C -0.775604248046875 137.4056549072266 6.706085205078125 131.7673645019531 8.491180419921875 130.2390289306641 L 161.1347198486328 2.346145629882812 C 161.9759674072266 1.625900268554688 163.0168914794922 1.265777587890625 164.0578002929688 1.265777587890625 Z" stroke="none" fill="#15515e"/>
    </g>
    <g id="Group_24" data-name="Group 24" transform="translate(1002.57 4218.517)">
      <rect id="Rectangle_16" data-name="Rectangle 16" width="230.346" height="191.019" fill="#f2f0cf"/>
      <g id="Rectangle_17" data-name="Rectangle 17" transform="translate(19.102 20.226)" fill="#ee9a0a" stroke="#ee9a0a" stroke-width="1">
        <rect width="85.397" height="12.36" stroke="none"/>
        <rect x="0.5" y="0.5" width="84.397" height="11.36" fill="none"/>
      </g>
      <g id="Rectangle_18" data-name="Rectangle 18" transform="translate(20.226 50.564)" fill="#e2e3e2" stroke="#e2e3e2" stroke-width="1">
        <rect width="188.772" height="12.36" stroke="none"/>
        <rect x="0.5" y="0.5" width="187.772" height="11.36" fill="none"/>
      </g>
      <g id="Rectangle_19" data-name="Rectangle 19" transform="translate(19.102 76.408)" fill="#e2e3e2" stroke="#e2e3e2" stroke-width="1">
        <rect width="188.772" height="12.36" stroke="none"/>
        <rect x="0.5" y="0.5" width="187.772" height="11.36" fill="none"/>
      </g>
      <g id="Rectangle_20" data-name="Rectangle 20" transform="translate(19.102 102.251)" fill="#e2e3e2" stroke="#e2e3e2" stroke-width="1">
        <rect width="188.772" height="12.36" stroke="none"/>
        <rect x="0.5" y="0.5" width="187.772" height="11.36" fill="none"/>
      </g>
      <g id="Rectangle_22" data-name="Rectangle 22" transform="translate(19.102 128.095)" fill="#e2e3e2" stroke="#e2e3e2" stroke-width="1">
        <rect width="188.772" height="12.36" stroke="none"/>
        <rect x="0.5" y="0.5" width="187.772" height="11.36" fill="none"/>
      </g>
    </g>
    <g id="Polygon_2" data-name="Polygon 2" transform="translate(1140.778 4466.842) rotate(-90)" fill="#9ebfcc">
      <path d="M 177.7443695068359 138.8314514160156 L 0.9145037531852722 138.8314514160156 L 89.32942199707031 0.9263744950294495 L 177.7443695068359 138.8314514160156 Z" stroke="none"/>
      <path d="M 89.32942199707031 1.852783203125 L 1.828994750976562 138.3314514160156 L 176.829833984375 138.3314514160156 L 89.32942199707031 1.852783203125 M 89.32942199707031 0 L 178.6588287353516 139.3314514160156 L -1.52587890625e-05 139.3314514160156 L 89.32942199707031 0 Z" stroke="none" fill="#9ebfcc"/>
    </g>
    <g id="Path_6" data-name="Path 6" transform="translate(1092.461 4287.967) rotate(90)" fill="#9ebfcc">
      <path d="M 177.9608612060547 139.955078125 L 0.9086726903915405 139.955078125 L 88.98535919189453 0.930899977684021 L 177.9608612060547 139.955078125 Z" stroke="none"/>
      <path d="M 88.98751068115234 1.861785888671875 L 1.817337036132812 139.4550476074219 L 177.0472106933594 139.4550476074219 L 88.98751068115234 1.861785888671875 M 88.98321533203125 -1.52587890625e-05 L 178.8744659423828 140.4550476074219 L -1.52587890625e-05 140.4550476074219 L 88.98321533203125 -1.52587890625e-05 Z" stroke="none" fill="#9ebfcc"/>
    </g>
    <g id="Path_5" data-name="Path 5" transform="translate(952 4326.543)" fill="#15515e">
      <path d="M 320.7740173339844 139.8695678710938 C 319.5922546386719 139.8695678710938 318.4454040527344 139.8445739746094 317.5238037109375 139.8244476318359 C 316.8882141113281 139.8105621337891 316.3392944335938 139.7985687255859 315.9488220214844 139.7985687255859 L 12.1667652130127 139.7985687255859 C 12.03439044952393 139.7985687255859 11.86197376251221 139.7995300292969 11.65572357177734 139.8006591796875 C 11.35101509094238 139.8023223876953 10.971848487854 139.8043975830078 10.53851509094238 139.8043975830078 C 8.006098747253418 139.8043975830078 5.980598926544189 139.7296600341797 4.346265316009521 139.5758972167969 C 0.9944038391113281 139.2605133056641 0.5136540532112122 138.7079467773438 0.4492830634117126 138.5924682617188 C 0.4424553513526917 138.5285491943359 0.4485735297203064 137.896484375 2.812932014465332 135.6811981201172 C 4.303390502929688 134.2847290039062 6.143140316009521 132.7961883544922 7.486432075500488 131.7092742919922 C 8.034732818603516 131.2656555175781 8.508480072021484 130.8823699951172 8.81434154510498 130.6205749511719 L 161.4558563232422 2.729402780532837 L 161.4578857421875 2.727694511413574 L 161.4598846435547 2.725944519042969 C 162.18310546875 2.106777667999268 163.1057281494141 1.765777707099915 164.0578002929688 1.765777707099915 C 165.0098876953125 1.765777707099915 165.9325103759766 2.106777667999268 166.6557312011719 2.725944519042969 L 166.6581420898438 2.728069305419922 L 166.66064453125 2.730111122131348 L 321.7168579101562 132.0527801513672 C 322.3363647460938 132.5835113525391 323.8661499023438 133.9740295410156 325.2289733886719 135.4452819824219 C 327.5218811035156 137.9205627441406 327.6325988769531 138.7730712890625 327.6118774414062 138.9754028320312 L 327.6115112304688 138.9791870117188 L 327.6111755371094 138.9830322265625 C 327.61083984375 138.9867706298828 327.4640197753906 139.3715667724609 325.6235961914062 139.6280670166016 C 324.4576721191406 139.7905731201172 322.8713989257812 139.8695678710938 320.7740173339844 139.8695678710938 Z" stroke="none"/>
      <path d="M 164.0578002929688 2.265777587890625 C 163.2248840332031 2.265777587890625 162.4177703857422 2.564117431640625 161.7850952148438 3.10577392578125 L 161.7769317626953 3.112655639648438 L 9.139739990234375 131.0001983642578 C 8.828765869140625 131.2663726806641 8.375152587890625 131.6333923339844 7.8011474609375 132.0978240966797 C 6.5565185546875 133.1048126220703 4.8519287109375 134.4839782714844 3.423797607421875 135.7964477539062 C 1.77227783203125 137.314208984375 1.220458984375 138.0813293457031 1.036651611328125 138.4144744873047 C 1.382049560546875 138.5835113525391 2.317840576171875 138.9014129638672 4.68365478515625 139.1041564941406 C 6.255859375 139.2389068603516 8.17095947265625 139.3043975830078 10.53854370117188 139.3043975830078 C 10.97085571289062 139.3043975830078 11.34902954101562 139.3023223876953 11.65298461914062 139.3006591796875 C 11.8603515625 139.2995300292969 12.03369140625 139.2985687255859 12.16677856445312 139.2985687255859 L 315.9487915039062 139.2985687255859 C 316.3448486328125 139.2985687255859 316.8963623046875 139.3106079101562 317.5349731445312 139.3245239257812 C 318.4540710449219 139.3446044921875 319.5978393554688 139.3695678710938 320.7740173339844 139.3695678710938 C 322.5413208007812 139.3695678710938 323.9288940429688 139.3135681152344 325.0160522460938 139.1984100341797 C 326.2781982421875 139.0646820068359 326.8404235839844 138.8767395019531 327.0722351074219 138.7689971923828 C 326.9546813964844 138.4310150146484 326.5038757324219 137.5436859130859 324.7755126953125 135.6918640136719 C 323.4493103027344 134.2709350585938 321.9866638183594 132.9425964355469 321.3965454101562 132.4367828369141 L 166.3305206298828 3.10577392578125 C 165.6978454589844 2.564117431640625 164.8907165527344 2.265777587890625 164.0578002929688 2.265777587890625 M 164.0578002929688 1.265777587890625 C 165.0987243652344 1.265777587890625 166.1396331787109 1.625900268554688 166.9808959960938 2.346145629882812 L 322.0370483398438 131.6688232421875 C 323.2578125 132.7139434814453 328.2821350097656 137.335693359375 328.1093139648438 139.0262298583984 C 327.9535522460938 140.8220672607422 318.5158386230469 140.2985687255859 315.9487915039062 140.2985687255859 L 12.16677856445312 140.2985687255859 C 10.342529296875 140.2985687255859 0.886566162109375 140.4798583984375 0.006256103515625 138.8243255615234 C -0.775604248046875 137.4056549072266 6.706085205078125 131.7673645019531 8.491180419921875 130.2390289306641 L 161.1347198486328 2.346145629882812 C 161.9759674072266 1.625900268554688 163.0168914794922 1.265777587890625 164.0578002929688 1.265777587890625 Z" stroke="none" fill="#15515e"/>
    </g>
  </g>
</svg>
